<?xml version="1.0" standalone="no"?>
<!DOCTYPE svg PUBLIC "-//W3C//DTD SVG 20010904//EN"
 "http://www.w3.org/TR/2001/REC-SVG-20010904/DTD/svg10.dtd">
<svg version="1.0" xmlns="http://www.w3.org/2000/svg"
 width="980.000000pt" height="980.000000pt" viewBox="0 0 980.000000 980.000000"
 preserveAspectRatio="xMidYMid meet">
<metadata>
Created by potrace 1.15, written by Peter Selinger 2001-2017
</metadata>
<g transform="translate(0.000000,980.000000) scale(0.100000,-0.100000)"
fill="#FFFFFF" stroke="none">
<path d="M4560 9789 c-1035 -75 -1998 -463 -2800 -1128 -150 -123 -501 -475
-622 -621 -881 -1068 -1270 -2403 -1098 -3765 119 -934 501 -1801 1124 -2545
98 -117 370 -393 496 -504 1328 -1166 3158 -1531 4825 -962 895 305 1700 879
2281 1627 735 946 1100 2126 1024 3314 -70 1094 -491 2109 -1216 2935 -112
128 -386 398 -509 501 -763 642 -1665 1026 -2665 1134 -174 19 -664 27 -840
14z m539 -409 c229 -12 415 -32 601 -66 1632 -297 2969 -1471 3473 -3050 282
-881 282 -1847 1 -2726 -442 -1384 -1528 -2470 -2912 -2912 -878 -281 -1849
-280 -2727 1 -960 307 -1808 946 -2363 1779 -536 806 -798 1746 -751 2699 31
646 182 1227 465 1794 299 598 690 1082 1219 1508 145 117 447 321 601 407
611 338 1279 531 1964 565 227 12 219 12 429 1z"/>
<path d="M4557 7173 c-4 -3 -7 -780 -7 -1725 l0 -1718 350 0 350 0 -2 1723 -3
1722 -341 3 c-187 1 -343 -1 -347 -5z"/>
<path d="M4765 3156 c-209 -69 -345 -250 -345 -461 0 -310 280 -539 581 -474
330 71 485 450 301 735 -50 77 -109 128 -202 173 -71 34 -82 36 -185 38 -71 2
-124 -2 -150 -11z"/>
</g>
</svg>
